<?xml version="1.0" standalone="no"?>
<!DOCTYPE svg PUBLIC "-//W3C//DTD SVG 20010904//EN"
 "http://www.w3.org/TR/2001/REC-SVG-20010904/DTD/svg10.dtd">
<svg version="1.0" xmlns="http://www.w3.org/2000/svg"
 width="200.000000pt" height="200.000000pt" viewBox="0 0 200.000000 200.000000"
 preserveAspectRatio="xMidYMid meet">
<metadata>
Created by potrace 1.11, written by Peter Selinger 2001-2013
</metadata>
<g transform="translate(0.000000,200.000000) scale(0.100000,-0.100000)"
fill="#000000" stroke="none">
<path d="M870 1983 c-167 -27 -362 -111 -477 -205 -47 -38 -147 -141 -180
-183 -222 -290 -264 -713 -103 -1037 56 -112 104 -181 184 -263 141 -144 287
-227 490 -279 91 -23 369 -21 467 4 83 22 181 59 231 90 18 11 42 24 53 29 11
5 45 28 75 52 199 156 323 347 376 580 13 57 15 109 12 253 -5 170 -7 187 -36
273 -57 168 -130 285 -254 406 -135 133 -268 207 -457 256 -88 23 -127 28
-231 28 -69 0 -136 -2 -150 -4z"/>
</g>
</svg>
