<svg xmlns="http://www.w3.org/2000/svg" style="display:none;"><symbol viewBox="0 0 65 65" id="arrow"><title>arrow</title><path fill="#1D1D1B" d="M16.313 63.8h-.002c-.002.003-.005.005-.01.007-.194.172-.43.298-.677.4-.076.03-.148.052-.225.075-.19.058-.39.094-.596.106-.076.006-.148.018-.226.016-.04 0-.076.01-.115.008-.238-.014-.47-.062-.686-.136-.023-.006-.04-.022-.064-.03-.24-.088-.45-.214-.645-.363-.027-.02-.063-.028-.09-.05L.83 53.523c-.93-.79-.95-2.085-.038-2.895.91-.808 2.402-.823 3.334-.032l6.55 5.558c-1.077-8.12.632-16.104.716-16.48C15.86 15.026 38.62-2.415 62.128.793 63.292.95 64.12 1.82 64.12 2.81c0 .106-.01.212-.027.32-.203 1.116-1.41 1.878-2.696 1.704C40.457 1.98 20.115 17.892 16.04 40.373c-.025.103-1.795 8.35-.575 16.117l5.093-8.577c.598-1.005 2.02-1.398 3.177-.88 1.16.515 1.608 1.747 1.017 2.755l-8.028 13.52c-.11.183-.25.347-.41.49z"/></symbol><symbol viewBox="0 0 24 24" id="email"><title>email</title><path d="M12.042 23.648C4.23 23.648 0 18.772 0 12.478 0 5.75 4.762.35 13.276.35 19.49.352 24 4.39 24 9.952c0 8.713-10.33 11.013-9.812 6.043-.71 1.108-1.854 2.354-4.053 2.354-2.516 0-4.08-1.843-4.08-4.808 0-4.444 2.92-8.2 6.38-8.2 1.658 0 2.8.877 3.276 2.222l.465-1.632h2.338c-.244.832-2.32 8.527-2.32 8.527-.65 2.665 1.35 2.712 3.12 1.296 3.33-2.58 3.502-9.327-.997-12.14C13.496.723 2.52 2.512 2.52 12.307c0 5.61 3.95 9.38 9.83 9.38 3.436 0 5.542-.93 7.295-1.947l1.177 1.7c-1.71.965-4.46 2.208-8.78 2.208zM9.698 9.343c-.715 1.34-1.177 3.076-1.177 4.424 0 3.61 3.523 3.633 5.253.24.712-1.395 1.17-3.172 1.17-4.53 0-2.917-3.494-3.434-5.245-.134z"/></symbol><symbol viewBox="0 0 24 24" id="fb"><title>fb</title><path d="M0 0v24h24V0H0zm16 7h-1.923C13.46 7 13 7.252 13 7.89V9h3l-.24 3H13v8h-3v-8H8V9h2V7.077C10 5.055 11.064 4 13.46 4H16v3z"/></symbol><symbol viewBox="0 0 24 24" id="in"><title>in</title><path d="M18 6.615v1.45c0 .34-.275.616-.616.616h-1.45c-.34 0-.614-.275-.614-.615v-1.45c0-.34.274-.615.615-.615h1.45c.34 0 .615.275.615.615zm-1.13 4.7c.032.224.053.452.053.685 0 2.72-2.204 4.923-4.922 4.923S7.08 14.72 7.08 12c0-.233.02-.46.054-.686.03-.22.075-.437.134-.647H6v6.72c0 .338.275.613.616.613h10.77c.34 0 .614-.275.614-.615v-6.72h-1.265c.058.212.102.428.134.65zM12 15.076c1.7 0 3.078-1.378 3.078-3.077S13.698 8.923 12 8.923 8.923 10.3 8.923 12 10.3 15.077 12 15.077zM24 0v24H0V0h24zm-4 5.846C20 4.826 19.174 4 18.154 4H5.846C4.826 4 4 4.827 4 5.846v12.307C4 19.173 4.827 20 5.846 20h12.31C19.173 20 20 19.173 20 18.153V5.846z"/></symbol><symbol viewBox="0 0 24 24" id="location"><title>location</title><path d="M12 1C8.852 1 6 3.553 6 6.702 6 9.85 8.602 13.61 12 19c3.398-5.39 6-9.15 6-12.298C18 3.552 15.15 1 12 1zm0 8c-1.105 0-2-.895-2-2s.895-2 2-2 2 .895 2 2-.895 2-2 2zm8 6h-3.135c-.385.64-.798 1.31-1.232 2h3.13l.5 1H15l-.344.544-.29.456h.56l.857 2H8.295l.858-2h.48l-.29-.456L9 18H6.958l-1.01-1h2.42c-.436-.69-.85-1.36-1.233-2H4l-4 8h24l-4-8zM7.206 21h-3.97L5 17.472 6.516 19h1.55l-.86 2zm8.808-2h3.75l1 2h-3.892l-.858-2z"/></symbol><symbol viewBox="0 0 24 24" id="menu"><title>menu</title><path d="M24 6h-24v-4h24v4zm0 4h-24v4h24v-4zm0 8h-24v4h24v-4z"/></symbol><symbol viewBox="0 0 24 24" id="smartphone"><title>smartphone</title><path d="M17.5 2c.276 0 .5.224.5.5v19c0 .276-.224.5-.5.5h-11c-.276 0-.5-.224-.5-.5v-19c0-.276.224-.5.5-.5h11zM20 2c0-1.104-.896-2-2-2H6C4.896 0 4 .896 4 2v20c0 1.104.896 2 2 2h12c1.104 0 2-.896 2-2V2zm-9.5 1h3c.276 0 .5.224.5.5s-.224.5-.5.5h-3c-.275 0-.5-.224-.5-.5s.225-.5.5-.5zM12 21c-.553 0-1-.448-1-1s.447-1 1-1c.552 0 1 .448 1 1s-.448 1-1 1zm5-3H7V5h10v13z"/></symbol><symbol id="up"><title>background</title><path fill="none" d="M-1-1h582v402H-1z"/><g><path d="M2 12C2 6.486 6.486 2 12 2s10 4.486 10 10-4.486 10-10 10S2 17.514 2 12zm-2 0c0 6.627 5.373 12 12 12s12-5.373 12-12S18.627 0 12 0 0 5.373 0 12zm12-2l4.5 4.5 1.5-1.527L12 7l-6 5.973L7.5 14.5 12 10z"/></g></symbol></svg>